# xmcd CD database file
#
# Track frame offsets:
#	150
#	21562
#	35035
#	53877
#	73575
#	91202
#	108727
#	135607
#	155347
#	169320
#	195587
#
# Disc length: 2772 seconds
#
# Revision: 2
# Processed by: cddbd v1.4PL0 Copyright (c) Steve Scherf et al.
# Submitted via: CDex 1.50beta10
#
DISCID=9c0ad20b
DTITLE=Larry Davis - Sooner or Later
DYEAR=1992
DGENRE=Blues
TTITLE0=How Could You Do It To Me
TTITLE1=I'm Workin On It
TTITLE2=Penitentiary Blues
TTITLE3=You'll need another favor
TTITLE4=Help The Poor
TTITLE5=Letter From My Darling
TTITLE6=Goin' Out West (Parts I and 2)
TTITLE7=102nd St. Blues
TTITLE8=How Long
TTITLE9=Little Bluebird
TTITLE10=Little Rock
EXTD=YEAR: 1992
EXTT0=
EXTT1=
EXTT2=
EXTT3=
EXTT4=
EXTT5=
EXTT6=
EXTT7=
EXTT8=
EXTT9=
EXTT10=
PLAYORDER=
